PathFileType	4	(X/Y/Z)	C:\Users\WrightLab\Desktop\Jo\P2_Trial17.trc
DataRate	CameraRate	NumFrames	NumMarkers	Units	OrigDataRate	OrigDataStartFrame	OrigNumFrames
100.00	100.00	      7	19	mm	100.00	517	      1033
Frame#	Time	Headset_Front			Headset_Back			Headset_Left			Headset_Right			Left_Shoulder			Right_Shoulder			Sternum			C7			Left Elbow			Right Elbow			Left Wrist			Right Wrist			Left ASIS			Right ASIS			S2			Left Knee			Right Knee			Left Ankle			Right Ankle			
		X1	Y1	Z1	X2	Y2	Z2	X3	Y3	Z3	X4	Y4	Z4	X5	Y5	Z5	X6	Y6	Z6	X7	Y7	Z7	X8	Y8	Z8	X9	Y9	Z9	X10	Y10	Z10	X11	Y11	Z11	X12	Y12	Z12	X13	Y13	Z13	X14	Y14	Z14	X15	Y15	Z15	X16	Y16	Z16	X17	Y17	Z17	X18	Y18	Z18	X19	Y19	Z19	

517	5.160	-133.77242	1480.50000	743.70227	-67.57166	1715.08728	933.35498	-191.46852	1597.24475	908.47070				-166.01706	1464.32520	1036.51379	119.54446	1475.47656	872.50330	-46.94537	1348.60901	901.00500	42.26950	1471.28418	1041.94873	-235.47827	1132.08679	1128.68909	131.78099	1087.79309	687.78650	-364.47931	1066.90979	1052.38501	249.35530	1160.05884	862.13934	-83.11046	1058.36169	906.47845				72.65559	988.57074	1126.67920	-102.17374	472.33536	1105.77002	146.52234	595.24469	836.41046	-58.27992	119.09249	1140.60828	182.87653	188.11461	923.18048	
518	5.170	-135.63614	1479.33411	737.40521	-70.58508	1714.45007	927.65662	-194.26120	1596.18018	902.22876				-168.63414	1463.48584	1031.18933	116.84048	1474.80774	866.98810	-49.75481	1347.80737	896.01654	39.46124	1470.61389	1036.42688	-239.50677	1132.09253	1124.63562	130.04741	1084.45471	682.78998	-365.72980	1067.61792	1044.98535	246.71832	1159.46228	856.17834	-86.15677	1057.25720	901.42908				70.85912	988.47266	1122.12671	-104.76889	471.97711	1104.02625	143.73582	596.76038	828.00415	-58.36405	118.59790	1140.22498	173.48476	181.35030	902.68518	
519	5.180	-137.84673	1478.65393	731.51794	-74.62254	1712.92920	922.00012	-197.50934	1595.22290	896.43420				-172.38422	1463.40491	1026.07397	113.89586	1473.78076	861.67255	-52.50307	1347.04736	890.91681	36.74642	1469.93433	1030.60486	-242.02664	1132.12280	1117.68359	128.27736	1080.45227	678.09430	-370.39450	1068.88342	1039.62939	244.22745	1158.59253	851.44891	-88.96390	1056.79529	896.56049				68.40625	987.67743	1116.73962	-106.71312	471.12866	1101.91394	141.61450	597.44769	822.39850	-58.81888	117.93961	1140.04700	163.08693	174.77766	879.91724	
520	5.190	-140.03372	1477.69836	725.71442	-76.66576	1711.84875	915.96967	-200.81013	1594.61621	890.28937				-174.08995	1462.60364	1020.25153	110.98315	1472.54614	855.23431	-55.39218	1345.91968	885.62134	33.99411	1469.25195	1025.17261	-245.56233	1132.11255	1112.49548	126.22601	1076.46375	671.79053	-372.40689	1069.17676	1032.89648	242.22626	1157.67151	847.08215	-92.46703	1056.11523	891.86414				66.55723	986.89856	1110.03516	-110.05361	470.67868	1099.33435	139.32133	597.11328	816.94836	-59.33998	118.61361	1140.31055	152.13756	168.23909	856.86761	
521	5.200	-141.99199	1476.33276	719.19806	-79.96107	1710.99438	910.19159	-203.20802	1593.56250	883.85004				-177.16994	1462.06201	1014.80261	107.89712	1471.50769	849.28015	-58.18008	1344.87195	880.29718	30.67341	1468.36426	1019.21503	-247.88344	1131.98926	1107.88245	124.62499	1072.39758	665.93597	-375.48145	1069.78027	1025.88013	239.54457	1156.68298	841.09741	-95.39097	1054.88147	887.02856				64.52921	986.17841	1104.21912	-112.29462	469.84109	1096.70142	137.22409	596.16492	813.25494	-59.40188	117.17651	1139.11096	142.19836	162.34061	834.19116	
522	5.210	-144.28630	1475.28613	713.41785	-82.49535	1710.25354	904.25824	-205.27939	1592.54968	877.51093				-178.99443	1460.97473	1008.96930	105.03260	1470.02417	843.18048	-61.01892	1343.67004	874.68835	28.66084	1467.41968	1013.26215	-252.27168	1130.90637	1099.85168	122.84824	1068.84216	660.72784	-378.77896	1070.18530	1019.02850	236.97699	1155.45203	834.98395	-98.27618	1053.80688	881.88580				62.63703	985.00000	1098.67883	-114.68356	469.06589	1094.05713	135.39435	593.35767	807.62567	-59.38327	115.78555	1138.03027	130.99634	158.26114	810.14917	
523	5.220	-146.58186	1474.05725	707.12170	-85.31663	1709.11060	898.20679	-208.11456	1590.95654	870.76324				-181.35405	1460.23206	1003.32806	102.33198	1468.29065	836.31549	-64.24745	1342.44409	869.55371	26.52796	1466.19788	1006.89911	-255.54869	1130.85876	1096.16382	120.89649	1064.83093	655.33936	-381.18710	1070.16516	1011.61194	234.57115	1153.89185	829.72876	-101.94923	1052.55591	877.29016				60.32018	983.96661	1093.10120	-116.91660	467.85541	1090.96240	131.75203	589.14197	803.34198	-59.09103	114.55568	1136.72656	119.85697	153.84665	788.77441	
